<svg width="204" height="63" viewBox="0 0 204 63" fill="none" xmlns="http://www.w3.org/2000/svg">
<path d="M24.2049 8.155L40.8467 15.0482L47.74 31.69L40.8467 48.3318L24.2049 55.225L7.56317 48.3318L0.669922 31.69L7.56317 15.0482L24.2049 8.155Z" fill="#0000AC"/>
<path d="M17.2668 23.652H20.2086L23.4447 33.5073C23.6081 33.9813 23.7634 34.4471 23.9105 34.9047C24.0576 35.346 24.1965 35.7954 24.3273 36.2531H24.3763C24.5071 35.7954 24.6378 35.3541 24.7686 34.9292C24.9156 34.5043 25.0791 34.0303 25.2589 33.5073L28.4214 23.652H31.3633L32.7116 39.0969H30.4562L29.8188 30.9086C29.7534 30.1078 29.7044 29.3151 29.6717 28.5306C29.639 27.7298 29.6063 26.9208 29.5736 26.1036H29.5246C29.2958 26.9044 29.0588 27.7053 28.8136 28.5061C28.5848 29.307 28.3397 30.1078 28.0782 30.9086L25.3569 39.0969H23.2976L20.5764 30.8841C20.2985 30.0506 20.0452 29.2579 19.8164 28.5061C19.5876 27.738 19.3588 26.9371 19.13 26.1036H19.0809C19.0482 26.9044 18.9992 27.7053 18.9338 28.5061C18.8848 29.307 18.8276 30.1078 18.7622 30.9086L18.1738 39.0969H15.9674L17.2668 23.652Z" fill="white"/>
<path d="M61.9058 19.2138H66.3774L71.2962 34.1939C71.5447 34.9143 71.7807 35.6223 72.0042 36.3179C72.2278 36.9886 72.439 37.6718 72.6377 38.3674H72.7123C72.911 37.6718 73.1097 37.0011 73.3085 36.3552C73.5321 35.7093 73.7805 34.9888 74.0538 34.1939L78.8608 19.2138H83.3324L85.3819 42.69H81.9537L80.9848 30.2439C80.8854 29.0266 80.8109 27.8218 80.7612 26.6293C80.7115 25.412 80.6619 24.1823 80.6122 22.9402H80.5377C80.1899 24.1575 79.8296 25.3748 79.457 26.5921C79.1092 27.8093 78.7366 29.0266 78.3391 30.2439L74.2028 42.69H71.0727L66.9364 30.2066C66.514 28.9397 66.129 27.7348 65.7812 26.5921C65.4334 25.4245 65.0856 24.2072 64.7378 22.9402H64.6633C64.6136 24.1575 64.5391 25.3748 64.4397 26.5921C64.3652 27.8093 64.2782 29.0266 64.1789 30.2439L63.2845 42.69H59.9308L61.9058 19.2138ZM105.283 34.3057H92.7247V34.4547C92.7247 36.3924 93.2463 37.883 94.2897 38.9264C95.358 39.9698 96.7988 40.4914 98.6123 40.4914C99.5563 40.4914 100.389 40.4169 101.109 40.2679C101.854 40.1188 102.662 39.8704 103.531 39.5226L104.202 41.9447C103.481 42.2677 102.624 42.5285 101.631 42.7273C100.662 42.926 99.6185 43.0254 98.5005 43.0254C97.2336 43.0254 96.0411 42.8515 94.9232 42.5037C93.8301 42.1559 92.8613 41.6218 92.0166 40.9013C91.172 40.1561 90.5012 39.2121 90.0044 38.0693C89.5324 36.9265 89.2964 35.5602 89.2964 33.9703C89.2964 32.6039 89.4951 31.3618 89.8926 30.2439C90.3149 29.126 90.8987 28.182 91.644 27.4119C92.3893 26.6169 93.2836 26.0083 94.327 25.5859C95.3952 25.1388 96.5877 24.9152 97.9043 24.9152C99.0222 24.9152 100.028 25.1015 100.923 25.4741C101.842 25.8468 102.624 26.3685 103.27 27.0392C103.916 27.71 104.413 28.5173 104.761 29.4614C105.109 30.4054 105.283 31.4488 105.283 32.5915V34.3057ZM101.892 31.958C101.892 31.3121 101.805 30.7159 101.631 30.1694C101.482 29.598 101.233 29.1011 100.885 28.6788C100.562 28.2565 100.14 27.9211 99.6185 27.6727C99.0968 27.4243 98.4633 27.3001 97.718 27.3001C96.3517 27.3001 95.2337 27.7348 94.3643 28.6043C93.5196 29.4738 92.9979 30.6165 92.7992 32.0326L101.892 31.958ZM121.056 16.2327H124.335V42.69H121.578L121.168 40.7523H121.056C120.286 41.5473 119.503 42.1311 118.708 42.5037C117.938 42.8515 116.957 43.0254 115.764 43.0254C114.82 43.0254 113.901 42.8391 113.007 42.4664C112.137 42.0938 111.355 41.5348 110.659 40.7896C109.964 40.0443 109.405 39.1127 108.982 37.9948C108.56 36.852 108.349 35.5105 108.349 33.9703C108.349 32.6039 108.523 31.3618 108.871 30.2439C109.243 29.126 109.765 28.1696 110.436 27.3746C111.106 26.5796 111.926 25.971 112.895 25.5487C113.864 25.1263 114.969 24.9152 116.212 24.9152C117.131 24.9152 118 25.0642 118.82 25.3623C119.665 25.6356 120.41 26.0579 121.056 26.6293V16.2327ZM121.056 29.3868C119.888 28.0702 118.51 27.4119 116.92 27.4119C116.249 27.4119 115.591 27.5361 114.945 27.7845C114.324 28.0081 113.765 28.3807 113.268 28.9024C112.796 29.4241 112.411 30.0948 112.113 30.9147C111.814 31.7345 111.665 32.7157 111.665 33.8585C111.665 35.0509 111.802 36.0695 112.075 36.9141C112.349 37.7339 112.709 38.4171 113.156 38.9636C113.628 39.4853 114.15 39.8704 114.721 40.1188C115.317 40.3672 115.913 40.4914 116.51 40.4914C118.373 40.4914 119.888 39.6841 121.056 38.0693V29.3868ZM130.023 42.69V25.176H133.302V42.69H130.023ZM131.662 20.6671C131.091 20.6671 130.594 20.4808 130.172 20.1082C129.774 19.7107 129.576 19.2262 129.576 18.6549C129.576 18.0835 129.774 17.5991 130.172 17.2016C130.594 16.8041 131.091 16.6054 131.662 16.6054C132.209 16.6054 132.693 16.8041 133.116 17.2016C133.538 17.5991 133.749 18.0835 133.749 18.6549C133.749 19.2262 133.538 19.7107 133.116 20.1082C132.693 20.4808 132.209 20.6671 131.662 20.6671ZM147.074 40.4914C147.869 40.4914 148.565 40.4045 149.161 40.2306C149.757 40.0567 150.341 39.8331 150.913 39.5598L151.621 42.0193C150.279 42.69 148.677 43.0254 146.814 43.0254C145.547 43.0254 144.354 42.8391 143.236 42.4664C142.143 42.0938 141.174 41.5348 140.33 40.7896C139.51 40.0194 138.864 39.0754 138.392 37.9575C137.92 36.8148 137.684 35.4857 137.684 33.9703C137.684 32.5791 137.908 31.3246 138.355 30.2066C138.802 29.0887 139.423 28.1447 140.218 27.3746C141.013 26.5796 141.969 25.971 143.087 25.5487C144.205 25.1263 145.435 24.9152 146.776 24.9152C147.546 24.9152 148.292 24.9773 149.012 25.1015C149.757 25.2009 150.602 25.4617 151.546 25.884L150.801 28.3807C149.658 27.7348 148.428 27.4119 147.112 27.4119C145.298 27.4119 143.833 27.9832 142.715 29.126C141.597 30.2439 141.038 31.8214 141.038 33.8585C141.038 35.1255 141.212 36.1813 141.559 37.0259C141.907 37.8706 142.367 38.5537 142.938 39.0754C143.51 39.5723 144.155 39.9325 144.876 40.1561C145.596 40.3797 146.329 40.4914 147.074 40.4914ZM155.347 26.7411C155.943 26.443 156.502 26.1822 157.024 25.9586C157.546 25.7101 158.067 25.5114 158.589 25.3623C159.111 25.2133 159.645 25.1015 160.191 25.027C160.738 24.9524 161.334 24.9152 161.98 24.9152C162.949 24.9152 163.831 25.027 164.626 25.2506C165.445 25.4493 166.141 25.7971 166.712 26.2939C167.309 26.7908 167.768 27.4491 168.091 28.2689C168.414 29.0639 168.576 30.07 168.576 31.2873V42.69H165.855L165.445 40.7523H165.371C164.601 41.5721 163.756 42.1559 162.837 42.5037C161.918 42.8515 160.899 43.0254 159.781 43.0254C158.937 43.0254 158.154 42.9136 157.434 42.69C156.738 42.4416 156.13 42.1062 155.608 41.6839C155.086 41.2367 154.676 40.7026 154.378 40.0815C154.105 39.4605 153.968 38.7649 153.968 37.9948C153.968 36.1564 154.689 34.7652 156.13 33.8212C157.595 32.8524 159.521 32.3679 161.905 32.3679H165.259V30.8774C165.259 29.6104 164.936 28.7534 164.29 28.3062C163.644 27.8342 162.775 27.5982 161.682 27.5982C161.036 27.5982 160.291 27.71 159.446 27.9335C158.626 28.1323 157.682 28.5298 156.614 29.126L155.347 26.7411ZM165.296 34.6038L162.539 34.6783C160.676 34.728 159.347 35.0634 158.552 35.6844C157.782 36.2806 157.397 37.0135 157.397 37.883C157.397 38.4047 157.483 38.8518 157.657 39.2245C157.831 39.5723 158.055 39.8455 158.328 40.0443C158.626 40.243 158.962 40.3921 159.334 40.4914C159.732 40.566 160.142 40.6032 160.564 40.6032C161.384 40.6032 162.216 40.4169 163.061 40.0443C163.905 39.6468 164.651 39.0257 165.296 38.1811V34.6038ZM173.411 42.69V25.176H175.87L176.429 28.6788C176.852 27.5609 177.547 26.6542 178.516 25.9586C179.485 25.263 180.603 24.9152 181.87 24.9152C182.516 24.9152 183.05 24.9649 183.472 25.0642C183.894 25.1636 184.28 25.2878 184.627 25.4369L183.994 28.3062C183.696 28.1571 183.36 28.0329 182.988 27.9335C182.64 27.8342 182.218 27.7845 181.721 27.7845C181 27.7845 180.33 27.9087 179.709 28.1571C179.112 28.4056 178.578 28.7782 178.106 29.275C177.659 29.7719 177.299 30.393 177.026 31.1382C176.777 31.8587 176.653 32.6909 176.653 33.6349V42.69H173.411ZM201.439 34.3057H188.881V34.4547C188.881 36.3924 189.403 37.883 190.446 38.9264C191.515 39.9698 192.955 40.4914 194.769 40.4914C195.713 40.4914 196.545 40.4169 197.266 40.2679C198.011 40.1188 198.818 39.8704 199.688 39.5226L200.358 41.9447C199.638 42.2677 198.781 42.5285 197.787 42.7273C196.818 42.926 195.775 43.0254 194.657 43.0254C193.39 43.0254 192.198 42.8515 191.08 42.5037C189.987 42.1559 189.018 41.6218 188.173 40.9013C187.329 40.1561 186.658 39.2121 186.161 38.0693C185.689 36.9265 185.453 35.5602 185.453 33.9703C185.453 32.6039 185.652 31.3618 186.049 30.2439C186.471 29.126 187.055 28.182 187.801 27.4119C188.546 26.6169 189.44 26.0083 190.484 25.5859C191.552 25.1388 192.744 24.9152 194.061 24.9152C195.179 24.9152 196.185 25.1015 197.079 25.4741C197.998 25.8468 198.781 26.3685 199.427 27.0392C200.073 27.71 200.57 28.5173 200.917 29.4614C201.265 30.4054 201.439 31.4488 201.439 32.5915V34.3057ZM198.048 31.958C198.048 31.3121 197.961 30.7159 197.787 30.1694C197.638 29.598 197.39 29.1011 197.042 28.6788C196.719 28.2565 196.297 27.9211 195.775 27.6727C195.253 27.4243 194.62 27.3001 193.875 27.3001C192.508 27.3001 191.39 27.7348 190.521 28.6043C189.676 29.4738 189.154 30.6165 188.956 32.0326L198.048 31.958Z" fill="#0000AC"/>
</svg>
